<svg xmlns="http://www.w3.org/2000/svg" xmlns:xlink="http://www.w3.org/1999/xlink" width="32" height="32" viewBox="0 0 32 32">
    <defs>
        <circle id="a" cx="16" cy="16" r="16"/>
        <filter id="b" width="106.2%" height="106.2%" x="-3.1%" y="-3.1%" filterUnits="objectBoundingBox">
            <feMorphology in="SourceAlpha" radius="1" result="shadowSpreadInner1"/>
            <feGaussianBlur in="shadowSpreadInner1" result="shadowBlurInner1" stdDeviation=".5"/>
            <feOffset in="shadowBlurInner1" result="shadowOffsetInner1"/>
            <feComposite in="shadowOffsetInner1" in2="SourceAlpha" k2="-1" k3="1" operator="arithmetic" result="shadowInnerInner1"/>
            <feColorMatrix in="shadowInnerInner1" values="0 0 0 0 0 0 0 0 0 0 0 0 0 0 0 0 0 0 0.05 0"/>
        </filter>
    </defs>
    <g fill="none" fill-rule="evenodd">
        <g>
            <use fill="#FFF" xlink:href="#a"/>
            <use fill="#000" filter="url(#b)" xlink:href="#a"/>
        </g>
        <path fill="#D0011B" fill-opacity=".99" d="M6 16.254c0 4.53 2.865 8.373 6.839 9.728.5.095.682-.222.682-.494 0-.243-.008-.888-.013-1.743-2.782.62-3.369-1.375-3.369-1.375-.454-1.185-1.11-1.5-1.11-1.5-.908-.636.069-.623.069-.623 1.003.072 1.531 1.057 1.531 1.057.893 1.566 2.341 1.114 2.91.851.092-.662.35-1.114.636-1.37-2.22-.26-4.555-1.139-4.555-5.068 0-1.12.39-2.035 1.029-2.752-.103-.259-.446-1.301.098-2.712 0 0 .84-.277 2.75 1.05A9.36 9.36 0 0 1 16 10.958c.85.004 1.705.118 2.504.345 1.909-1.327 2.748-1.05 2.748-1.05.545 1.41.202 2.453.099 2.712.64.717 1.028 1.633 1.028 2.752 0 3.939-2.338 4.806-4.566 5.06.36.317.678.942.678 1.898 0 1.371-.011 2.477-.011 2.813 0 .275.18.593.687.493C23.137 24.623 26 20.783 26 16.254 26 10.59 21.522 6 16 6S6 10.59 6 16.254z"/>
    </g>
</svg>
