<svg xmlns="http://www.w3.org/2000/svg" xmlns:xlink="http://www.w3.org/1999/xlink" width="32" height="32" viewBox="0 0 32 32">
    <defs>
        <circle id="a" cx="16" cy="16" r="16"/>
        <filter id="b" width="106.2%" height="106.2%" x="-3.1%" y="-3.1%" filterUnits="objectBoundingBox">
            <feMorphology in="SourceAlpha" radius="1" result="shadowSpreadInner1"/>
            <feGaussianBlur in="shadowSpreadInner1" result="shadowBlurInner1" stdDeviation=".5"/>
            <feOffset in="shadowBlurInner1" result="shadowOffsetInner1"/>
            <feComposite in="shadowOffsetInner1" in2="SourceAlpha" k2="-1" k3="1" operator="arithmetic" result="shadowInnerInner1"/>
            <feColorMatrix in="shadowInnerInner1" values="0 0 0 0 0 0 0 0 0 0 0 0 0 0 0 0 0 0 0.05 0"/>
        </filter>
    </defs>
    <g fill="none" fill-rule="evenodd">
        <g>
            <use fill="#FFF" xlink:href="#a"/>
            <use fill="#000" filter="url(#b)" xlink:href="#a"/>
        </g>
        <path fill="#D0011B" d="M9.404 12.13h3.118V23H9.404V12.13zm1.48-1.359h-.023C9.73 10.771 9 9.941 9 8.888 9 7.814 9.754 7 10.905 7c1.15 0 1.858.812 1.88 1.885 0 1.052-.73 1.886-1.902 1.886zM25 23h-3.536v-5.625c0-1.472-.553-2.476-1.77-2.476-.93 0-1.448.677-1.688 1.331-.09.234-.077.56-.077.889V23h-3.503s.045-9.964 0-10.87h3.503v1.706c.207-.746 1.327-1.81 3.113-1.81 2.217 0 3.958 1.564 3.958 4.93V23z"/>
    </g>
</svg>
